<svg xmlns="http://www.w3.org/2000/svg" width="24" height="24" fill="none" viewBox="0 0 24 24"><path fill-rule="evenodd" stroke="#333" stroke-linecap="round" stroke-linejoin="round" stroke-width="1.4" d="M12 22C17.5228 22 22 17.5228 22 12C22 6.47715 17.5228 2 12 2C6.47715 2 2 6.47715 2 12C2 17.5228 6.47715 22 12 22Z" clip-rule="evenodd"/><path fill-rule="evenodd" stroke="#333" stroke-linecap="round" stroke-linejoin="round" stroke-width="1.4" d="M12 16C14.2091 16 16 14.2091 16 12C16 9.79086 14.2091 8 12 8C9.79086 8 8 9.79086 8 12C8 14.2091 9.79086 16 12 16Z" clip-rule="evenodd"/><path stroke="#333" stroke-linecap="round" stroke-linejoin="round" stroke-width="1.4" d="M4.92969 4.92993L9.16969 9.16993"/><path stroke="#333" stroke-linecap="round" stroke-linejoin="round" stroke-width="1.4" d="M14.8301 14.8298L19.0701 19.0698"/><path stroke="#333" stroke-linecap="round" stroke-linejoin="round" stroke-width="1.227" d="M14.8301 9.16993L19.0701 4.92993"/><path stroke="#333" stroke-linecap="round" stroke-linejoin="round" stroke-width="1.4" d="M14.8301 9.16989L18.3601 5.63989"/><path stroke="#333" stroke-linecap="round" stroke-linejoin="round" stroke-width="1.4" d="M4.92969 19.0698L9.16969 14.8298"/></svg>