<svg xmlns="http://www.w3.org/2000/svg" xmlns:xlink="http://www.w3.org/1999/xlink" id="Capa_1" x="0" y="0" version="1.1" viewBox="0 0 512 512" xml:space="preserve" style="enable-background:new 0 0 512 512"><path style="fill:#f0efeb" d="M512,256c0,79.6-36.331,150.716-93.32,197.663C374.45,490.12,317.785,512,256,512	C114.615,512,0,397.385,0,256S114.615,0,256,0c61.785,0,118.45,21.88,162.68,58.337C475.669,105.284,512,176.4,512,256z"/><g><path style="fill:#00499b" d="M285.277,57.901h-58.553c-109.416,0-198.1,88.683-198.1,198.099 c0,109.399,88.684,198.099,198.099,198.099h58.553c109.416,0,198.099-88.701,198.099-198.099 C483.376,146.584,394.692,57.901,285.277,57.901z M226.723,435.162c-98.942,0-179.162-80.221-179.162-179.162 S127.782,76.838,226.723,76.838S405.886,157.058,405.886,256S325.665,435.162,226.723,435.162z"/><path style="fill:#00499b" d="M185.4,151.274c-41.726,16.48-71.262,57.139-71.262,104.724s29.536,88.244,71.262,104.724V151.274z"/><path style="fill:#00499b" d="M268.047,151.274v209.448c41.727-16.48,71.263-57.139,71.263-104.724 S309.774,167.753,268.047,151.274z"/></g></svg>